<svg width="26" height="29" viewBox="0 0 26 29" fill="none" xmlns="http://www.w3.org/2000/svg">
<path id="Vector" d="M26 19.908V1.3272C26 0.591709 25.379 0 24.6071 0H5.57143C2.49554 0 0 2.3779 0 5.30879V23.0048C0 25.9357 2.49554 28.3136 5.57143 28.3136H24.6071C25.379 28.3136 26 27.7219 26 26.9864V26.1016C26 25.6868 25.7969 25.3108 25.4835 25.0675C25.2397 24.2158 25.2397 21.7882 25.4835 20.9366C25.7969 20.6988 26 20.3227 26 19.908ZM7.42857 7.41019C7.42857 7.2277 7.58527 7.07839 7.77679 7.07839H20.0804C20.2719 7.07839 20.4286 7.2277 20.4286 7.41019V8.51619C20.4286 8.69868 20.2719 8.84799 20.0804 8.84799H7.77679C7.58527 8.84799 7.42857 8.69868 7.42857 8.51619V7.41019ZM7.42857 10.9494C7.42857 10.7669 7.58527 10.6176 7.77679 10.6176H20.0804C20.2719 10.6176 20.4286 10.7669 20.4286 10.9494V12.0554C20.4286 12.2379 20.2719 12.3872 20.0804 12.3872H7.77679C7.58527 12.3872 7.42857 12.2379 7.42857 12.0554V10.9494ZM22.1348 24.7744H5.57143C4.5442 24.7744 3.71429 23.9836 3.71429 23.0048C3.71429 22.0315 4.55 21.2352 5.57143 21.2352H22.1348C22.0246 22.1808 22.0246 23.8287 22.1348 24.7744Z" fill="black"/>
</svg>
